HIERARCHY
ROOT Hips
{
	OFFSET 0.000000 71.427986 0.000000
	CHANNELS 6 Xposition Yposition Zposition Xrotation Yrotation Zrotation
	JOINT Pelvis
	{
		OFFSET 0.000000 0.000000 0.000000
		CHANNELS 3 Xrotation Yrotation Zrotation
		JOINT LeftUpLeg
		{
			OFFSET 6.797100 -2.508499 -1.318700
			CHANNELS 3 Xrotation Yrotation Zrotation
			JOINT LeftLeg
			{
				OFFSET 0.069008 -29.241863 0.690200
				CHANNELS 3 Xrotation Yrotation Zrotation
				JOINT LeftFoot
				{
					OFFSET -0.069008 -29.568123 -0.266800
					CHANNELS 3 Xrotation Yrotation Zrotation
					JOINT LeftToeBase
					{
						OFFSET 3.145500 -8.631000 16.059900
						CHANNELS 3 Xrotation Yrotation Zrotation
						End Site
						{
							OFFSET 0.000000 18.501587 0.000000
						}
					}
				}
			}
			JOINT Left_ShortSleeve
			{
				OFFSET 0.265923 -10.480953 1.153800
				CHANNELS 3 Xrotation Yrotation Zrotation
				End Site
				{
					OFFSET 1.725763 19.823879 0.000000
				}
			}
		}
		JOINT RightUpLeg
		{
			OFFSET -6.797100 -2.508499 -1.318700
			CHANNELS 3 Xrotation Yrotation Zrotation
			JOINT RightLeg
			{
				OFFSET -0.082453 -29.241932 0.688000
				CHANNELS 3 Xrotation Yrotation Zrotation
				JOINT RightFoot
				{
					OFFSET 0.082453 -29.568058 -0.264600
					CHANNELS 3 Xrotation Yrotation Zrotation
					JOINT RightToeBase
					{
						OFFSET -3.115300 -8.682800 16.113400
						CHANNELS 3 Xrotation Yrotation Zrotation
						End Site
						{
							OFFSET 0.000000 18.567114 0.000000
						}
					}
				}
			}
			JOINT Right_ShortSleeve
			{
				OFFSET -0.265923 -10.480953 1.153800
				CHANNELS 3 Xrotation Yrotation Zrotation
				End Site
				{
					OFFSET -1.725766 19.823910 0.000000
				}
			}
		}
	}
	JOINT Spine
	{
		OFFSET 0.000000 13.368103 0.470500
		CHANNELS 3 Xrotation Yrotation Zrotation
		JOINT Spine1
		{
			OFFSET 0.147000 13.837402 0.538800
			CHANNELS 3 Xrotation Yrotation Zrotation
			JOINT Spine2
			{
				OFFSET 0.168000 16.242897 -1.435500
				CHANNELS 3 Xrotation Yrotation Zrotation
				JOINT Neck
				{
					OFFSET 0.217200 18.631500 -1.679100
					CHANNELS 3 Xrotation Yrotation Zrotation
					JOINT Head
					{
						OFFSET 0.000000 6.599396 1.385900
						CHANNELS 3 Xrotation Yrotation Zrotation
						JOINT Hat
						{
							OFFSET -0.532200 27.220596 -10.096100
							CHANNELS 3 Xrotation Yrotation Zrotation
							End Site
							{
								OFFSET 0.000000 22.029861 0.000000
							}
						}
						JOINT HairD
						{
							OFFSET -10.777400 17.437393 -1.325900
							CHANNELS 3 Xrotation Yrotation Zrotation
							JOINT HairD1
							{
								OFFSET -3.290299 -11.051193 1.062200
								CHANNELS 3 Xrotation Yrotation Zrotation
								End Site
								{
									OFFSET 0.000000 11.579437 0.000000
								}
							}
						}
						JOINT HairB
						{
							OFFSET -10.777400 17.437393 1.467900
							CHANNELS 3 Xrotation Yrotation Zrotation
							JOINT HairB1
							{
								OFFSET -1.561200 -12.956299 3.590200
								CHANNELS 3 Xrotation Yrotation Zrotation
								End Site
								{
									OFFSET 0.000000 13.534866 0.000000
								}
							}
						}
						JOINT HairA
						{
							OFFSET 9.713100 17.437393 1.467900
							CHANNELS 3 Xrotation Yrotation Zrotation
							JOINT HairA1
							{
								OFFSET 1.561200 -12.956299 3.590200
								CHANNELS 3 Xrotation Yrotation Zrotation
								End Site
								{
									OFFSET 0.000000 13.534866 0.000000
								}
							}
						}
						JOINT HairC
						{
							OFFSET 9.713100 17.437393 -1.325900
							CHANNELS 3 Xrotation Yrotation Zrotation
							JOINT HairC1
							{
								OFFSET 3.290300 -11.051193 1.062200
								CHANNELS 3 Xrotation Yrotation Zrotation
								End Site
								{
									OFFSET 0.000000 11.579437 0.000000
								}
							}
						}
					}
				}
				JOINT LeftShoulder
				{
					OFFSET 5.101800 15.108002 -2.763700
					CHANNELS 3 Xrotation Yrotation Zrotation
					JOINT LeftArm
					{
						OFFSET 9.825497 2.506317 -1.597400
						CHANNELS 3 Xrotation Yrotation Zrotation
						JOINT LeftForeArm
						{
							OFFSET 21.966244 0.000000 0.000000
							CHANNELS 3 Xrotation Yrotation Zrotation
							JOINT LeftHand
							{
								OFFSET 33.879036 0.000000 0.000000
								CHANNELS 3 Xrotation Yrotation Zrotation
								JOINT LeftHandThumb1
								{
									OFFSET 6.715286 -2.359680 3.363841
									CHANNELS 3 Xrotation Yrotation Zrotation
									JOINT LeftHandThumb2
									{
										OFFSET 2.507072 -1.447464 1.447461
										CHANNELS 3 Xrotation Yrotation Zrotation
										JOINT LeftHandThumb3
										{
											OFFSET 2.898338 -1.673355 1.673357
											CHANNELS 3 Xrotation Yrotation Zrotation
											End Site
											{
												OFFSET -0.295959 3.727692 -0.131651
											}
										}
									}
								}
								JOINT LeftHandIndex1
								{
									OFFSET 14.190811 -0.254547 3.840278
									CHANNELS 3 Xrotation Yrotation Zrotation
									JOINT LeftHandIndex2
									{
										OFFSET 3.551727 0.000000 -0.000000
										CHANNELS 3 Xrotation Yrotation Zrotation
										JOINT LeftHandIndex3
										{
											OFFSET 2.894196 0.000000 0.000000
											CHANNELS 3 Xrotation Yrotation Zrotation
											End Site
											{
												OFFSET -1.000603 2.690872 0.366626
											}
										}
									}
								}
								JOINT LeftHandMiddle1
								{
									OFFSET 13.776489 0.000000 0.000000
									CHANNELS 3 Xrotation Yrotation Zrotation
									JOINT LeftHandMiddle2
									{
										OFFSET 3.438232 0.000000 0.000000
										CHANNELS 3 Xrotation Yrotation Zrotation
										JOINT LeftHandMiddle3
										{
											OFFSET 3.691551 0.000000 0.000000
											CHANNELS 3 Xrotation Yrotation Zrotation
											End Site
											{
												OFFSET -1.082298 3.499527 0.457670
											}
										}
									}
								}
								JOINT LeftHandRing1
								{
									OFFSET 13.966164 -0.268127 -3.067488
									CHANNELS 3 Xrotation Yrotation Zrotation
									JOINT LeftHandRing2
									{
										OFFSET 3.162567 0.000000 0.000000
										CHANNELS 3 Xrotation Yrotation Zrotation
										JOINT LeftHandRing3
										{
											OFFSET 3.324348 0.000000 0.000000
											CHANNELS 3 Xrotation Yrotation Zrotation
											End Site
											{
												OFFSET -0.861900 3.184998 0.405154
											}
										}
									}
								}
								JOINT LeftHandPinky1
								{
									OFFSET 13.131393 -0.168503 -5.746925
									CHANNELS 3 Xrotation Yrotation Zrotation
									JOINT LeftHandPinky2
									{
										OFFSET 2.849182 0.000000 0.000000
										CHANNELS 3 Xrotation Yrotation Zrotation
										JOINT LeftHandPinky3
										{
											OFFSET 2.805038 0.000000 0.000000
											CHANNELS 3 Xrotation Yrotation Zrotation
											End Site
											{
												OFFSET -0.882500 2.642609 0.325652
											}
										}
									}
								}
							}
							JOINT Left_Sleeve
							{
								OFFSET 6.592125 -0.646545 0.805568
								CHANNELS 3 Xrotation Yrotation Zrotation
								End Site
								{
									OFFSET -0.000179 20.275787 -0.000000
								}
							}
						}
					}
				}
				JOINT RightShoulder
				{
					OFFSET -5.731700 15.108002 -2.763700
					CHANNELS 3 Xrotation Yrotation Zrotation
					JOINT RightArm
					{
						OFFSET -9.825497 2.506317 -1.597400
						CHANNELS 3 Xrotation Yrotation Zrotation
						JOINT RightForeArm
						{
							OFFSET -21.966242 0.000000 0.000000
							CHANNELS 3 Xrotation Yrotation Zrotation
							JOINT RightHand
							{
								OFFSET -33.879032 0.000000 0.000000
								CHANNELS 3 Xrotation Yrotation Zrotation
								JOINT RightHandThumb1
								{
									OFFSET -6.715286 -2.359680 3.363841
									CHANNELS 3 Xrotation Yrotation Zrotation
									JOINT RightHandThumb2
									{
										OFFSET -2.507072 -1.447464 1.447461
										CHANNELS 3 Xrotation Yrotation Zrotation
										JOINT RightHandThumb3
										{
											OFFSET -2.898338 -1.673355 1.673357
											CHANNELS 3 Xrotation Yrotation Zrotation
											End Site
											{
												OFFSET 0.295959 3.727692 -0.131651
											}
										}
									}
								}
								JOINT RightHandIndex1
								{
									OFFSET -14.190811 -0.254547 3.840278
									CHANNELS 3 Xrotation Yrotation Zrotation
									JOINT RightHandIndex2
									{
										OFFSET -3.551727 0.000000 -0.000000
										CHANNELS 3 Xrotation Yrotation Zrotation
										JOINT RightHandIndex3
										{
											OFFSET -2.894196 0.000000 0.000000
											CHANNELS 3 Xrotation Yrotation Zrotation
											End Site
											{
												OFFSET 1.000603 2.690872 0.366626
											}
										}
									}
								}
								JOINT RightHandMiddle1
								{
									OFFSET -13.776489 0.000000 0.000000
									CHANNELS 3 Xrotation Yrotation Zrotation
									JOINT RightHandMiddle2
									{
										OFFSET -3.438232 0.000000 0.000000
										CHANNELS 3 Xrotation Yrotation Zrotation
										JOINT RightHandMiddle3
										{
											OFFSET -3.691551 0.000000 0.000000
											CHANNELS 3 Xrotation Yrotation Zrotation
											End Site
											{
												OFFSET 1.082298 3.499527 0.457670
											}
										}
									}
								}
								JOINT RightHandRing1
								{
									OFFSET -13.966164 -0.268127 -3.067488
									CHANNELS 3 Xrotation Yrotation Zrotation
									JOINT RightHandRing2
									{
										OFFSET -3.162567 0.000000 0.000000
										CHANNELS 3 Xrotation Yrotation Zrotation
										JOINT RightHandRing3
										{
											OFFSET -3.324348 0.000000 0.000000
											CHANNELS 3 Xrotation Yrotation Zrotation
											End Site
											{
												OFFSET 0.861900 3.184998 0.405154
											}
										}
									}
								}
								JOINT RightHandPinky1
								{
									OFFSET -13.131393 -0.168503 -5.746925
									CHANNELS 3 Xrotation Yrotation Zrotation
									JOINT RightHandPinky2
									{
										OFFSET -2.849182 0.000000 0.000000
										CHANNELS 3 Xrotation Yrotation Zrotation
										JOINT RightHandPinky3
										{
											OFFSET -2.805038 0.000000 0.000000
											CHANNELS 3 Xrotation Yrotation Zrotation
											End Site
											{
												OFFSET 0.882500 2.642609 0.325652
											}
										}
									}
								}
							}
							JOINT Right_Sleeve
							{
								OFFSET -6.592125 -0.646545 0.805568
								CHANNELS 3 Xrotation Yrotation Zrotation
								End Site
								{
									OFFSET 0.000179 20.275787 -0.000000
								}
							}
						}
					}
				}
				JOINT Bind_Right_JacketString
				{
					OFFSET -3.534800 11.969597 7.200700
					CHANNELS 3 Xrotation Yrotation Zrotation
					JOINT Bind_Right_JacketString1
					{
						OFFSET -0.319900 -6.102600 2.794100
						CHANNELS 3 Xrotation Yrotation Zrotation
						End Site
						{
							OFFSET 0.000000 6.719452 0.000000
						}
					}
				}
				JOINT Bind_Left_JacketString
				{
					OFFSET 2.904800 11.969597 7.200700
					CHANNELS 3 Xrotation Yrotation Zrotation
					JOINT Bind_Left_JacketString1
					{
						OFFSET 0.364800 -5.904503 3.186800
						CHANNELS 3 Xrotation Yrotation Zrotation
						End Site
						{
							OFFSET 0.000000 6.719513 0.000000
						}
					}
				}
				JOINT HairE
				{
					OFFSET 5.915200 17.612701 -11.592200
					CHANNELS 3 Xrotation Yrotation Zrotation
					JOINT HairE1
					{
						OFFSET 0.289200 -7.171898 -1.284500
						CHANNELS 3 Xrotation Yrotation Zrotation
						End Site
						{
							OFFSET 0.000000 7.291756 0.000000
						}
					}
				}
				JOINT HairF
				{
					OFFSET -0.864800 17.612701 -11.592200
					CHANNELS 3 Xrotation Yrotation Zrotation
					JOINT HairF1
					{
						OFFSET 0.000000 -14.087097 -2.127501
						CHANNELS 3 Xrotation Yrotation Zrotation
						End Site
						{
							OFFSET 0.000000 14.246841 0.000000
						}
					}
				}
				JOINT HairG
				{
					OFFSET -8.087700 17.612701 -11.592200
					CHANNELS 3 Xrotation Yrotation Zrotation
					JOINT HairG1
					{
						OFFSET -0.293600 -6.081398 -0.910100
						CHANNELS 3 Xrotation Yrotation Zrotation
						End Site
						{
							OFFSET 0.000000 6.156120 0.000000
						}
					}
				}
			}
		}
	}
	JOINT Pouch
	{
		OFFSET 0.000000 4.394501 10.847300
		CHANNELS 3 Xrotation Yrotation Zrotation
		End Site
		{
			OFFSET 0.000000 21.880577 0.000000
		}
	}
	JOINT Bag
	{
		OFFSET -13.229000 4.813004 -0.593300
		CHANNELS 3 Xrotation Yrotation Zrotation
		End Site
		{
			OFFSET 0.000000 21.880577 0.000000
		}
	}
	JOINT OccupyGuyFacialAnim_Joint
	{
		OFFSET 1.000000 -70.206398 -1.655000
		CHANNELS 3 Xrotation Yrotation Zrotation
		End Site
		{
			OFFSET 0.000000 21.880577 0.000000
		}
	}
}
MOTION
Frames: 4
Frame Time: 0.033333
-2.242765 62.770229 35.350311 41.070996 -11.647809 0.150435 0.000001 0.000000 0.000000 -42.330692 13.886387 21.287000 52.740699 -5.074662 -6.605354 -35.169341 -3.915491 -2.585663 -0.000000 -0.000000 0.000000 -0.000000 0.000000 -0.000000 -76.243284 -3.737226 6.696225 44.225195 9.008446 3.704424 -7.918587 1.092962 -4.537560 0.000000 0.000000 0.000000 -0.000001 -0.000000 0.000000 56.128647 0.325920 2.063714 -7.446986 -4.808381 3.483416 -7.302566 -2.716872 4.749439 -12.123701 15.567338 -7.976216 -22.595709 11.740439 2.526345 -0.000000 0.000000 0.000000 -0.000000 0.000000 0.000000 -0.000000 0.000000 0.000000 -0.000000 0.000000 0.000000 0.000001 -0.000000 -0.000000 -0.000000 0.000000 0.000000 0.000001 -0.000000 -0.000000 -0.000000 0.000000 0.000000 -0.000000 0.000000 0.000000 9.684686 -22.958860 8.021735 -58.837135 -18.478088 -21.274818 22.959855 -18.385985 3.007395 -2.134501 31.476968 7.123460 17.551638 -5.699223 -12.932281 10.850468 26.127765 8.644828 -0.000001 -0.000002 -0.000001 13.980934 1.201550 -55.004388 0.370782 1.161723 -65.441873 -0.000004 0.000000 -0.000000 7.504745 1.174493 -63.778476 1.807849 1.475630 -64.567943 0.000000 0.000000 -0.000001 8.574330 2.179060 -75.149006 -0.207627 1.009243 -57.855063 0.000001 0.000000 -0.000003 10.030111 13.637029 -84.750271 0.877072 0.062341 -64.595524 0.000002 0.000001 0.000001 0.000000 -0.000000 0.000000 6.093743 9.755226 21.551103 6.530961 8.673373 31.031557 -3.316496 19.709841 7.458993 8.544835 8.346890 -4.846168 15.788508 -2.734488 -17.205848 -2.198281 -31.113581 7.361310 -0.000000 0.000000 0.000003 2.372917 -3.655040 -4.195244 -2.149903 -2.464937 5.990560 0.000000 0.000005 0.000001 -1.978659 -5.699331 0.979475 0.278634 -5.097078 14.305079 0.000001 -0.000001 -0.000001 -3.263395 -8.554596 -0.913527 4.032604 -4.061736 20.580234 0.000003 0.000001 -0.000001 -6.477677 -11.339749 10.577666 10.714689 -2.553528 22.139969 -0.000000 0.000001 0.000001 -0.000001 0.000001 0.000001 -0.000000 -0.000000 -0.000000 -0.000001 -0.000000 0.000001 -0.000000 -0.000000 -0.000000 -0.000000 -0.000000 -0.000000 -0.000000 -0.000000 -0.000000 -0.000001 -0.000000 0.000001 -0.000000 -0.000000 -0.000000 -0.000000 -0.000000 -0.000000 -0.000000 -0.000000 -0.000000 -0.000001 -0.000000 0.000001 0.000001 0.000000 0.000000 0.000001 0.000000 0.000000 0.000001 0.000000 0.000000 
-2.334901 62.775852 35.126987 40.706715 -11.518167 0.235699 -0.000000 0.000001 0.000000 -42.570220 13.574153 21.060009 53.543253 -5.390623 -6.344261 -34.963721 -3.575774 -2.412395 0.000002 -0.000001 0.000000 0.000000 -0.000000 -0.000000 -76.058241 -3.691257 6.677071 44.135163 8.911312 3.653263 -7.627926 1.104295 -4.628246 -0.000000 -0.000000 -0.000000 0.000000 0.000000 -0.000000 55.927003 0.263085 2.043035 -7.322075 -4.838470 3.529564 -7.173174 -2.739744 4.799129 -12.204985 15.463238 -7.936166 -22.451626 11.588753 2.649263 -0.000001 0.000000 0.000000 -0.000001 0.000000 0.000000 -0.000001 0.000000 0.000000 -0.000001 0.000000 0.000000 -0.000001 -0.000001 -0.000000 -0.000001 0.000000 0.000000 -0.000001 -0.000001 -0.000000 -0.000001 0.000000 0.000000 -0.000001 0.000000 0.000000 9.658433 -22.349164 8.123165 -59.584822 -18.817383 -22.070315 23.838448 -17.950716 3.185397 -2.036816 31.091728 6.877948 17.551638 -5.699218 -12.932286 10.850469 26.127757 8.644829 -0.000000 -0.000001 0.000001 13.980932 1.201558 -55.004388 0.370782 1.161728 -65.441873 -0.000002 0.000001 -0.000002 7.504742 1.174498 -63.778483 1.807848 1.475631 -64.567943 0.000001 0.000000 -0.000001 8.574330 2.179068 -75.149006 -0.207629 1.009246 -57.855063 0.000004 0.000003 -0.000001 10.030111 13.637035 -84.750271 0.877078 0.062343 -64.595524 -0.000001 -0.000003 0.000002 0.000000 -0.000000 0.000002 6.067305 9.700691 21.381665 5.661079 8.899334 31.052649 -2.467886 20.291145 7.242192 8.877979 8.526032 -4.829496 15.788510 -2.734485 -17.205858 -2.198277 -31.113578 7.361314 0.000001 0.000002 0.000002 2.373207 -3.655454 -4.285674 -2.150216 -2.464386 5.900079 0.000000 0.000001 0.000001 -1.978609 -5.698677 0.888961 0.277629 -5.096603 14.214474 0.000001 -0.000004 -0.000001 -3.263293 -8.553857 -1.003995 4.032277 -4.062738 20.489692 -0.000004 -0.000004 -0.000001 -6.478454 -11.339193 10.487067 10.714394 -2.553582 22.049430 0.000001 0.000003 -0.000002 0.000001 -0.000000 -0.000000 0.000000 -0.000000 -0.000001 0.000001 0.000001 -0.000002 0.000000 -0.000000 -0.000001 0.000000 -0.000000 -0.000001 0.000000 -0.000000 -0.000001 0.000001 0.000001 -0.000001 0.000000 -0.000000 -0.000001 0.000000 -0.000000 -0.000001 0.000000 -0.000000 -0.000001 0.000001 0.000001 -0.000001 -0.000000 0.000001 0.000000 -0.000000 0.000001 0.000000 -0.000000 0.000001 0.000000 
-2.403795 62.765923 34.839561 40.200352 -11.327987 0.309638 0.000001 0.000000 0.000000 -42.865232 13.203492 20.934899 54.520848 -5.726727 -6.189827 -34.579298 -3.663130 -2.471953 0.000000 -0.000000 0.000000 -0.000000 -0.000001 -0.000000 -75.839887 -3.609665 6.592034 44.101155 8.778457 3.603010 -7.304555 1.108256 -4.686424 -0.000000 -0.000000 0.000000 -0.000000 -0.000000 0.000000 55.645500 0.226820 2.055992 -7.183875 -4.810182 3.510359 -7.036253 -2.731297 4.766995 -12.064669 15.063458 -7.534663 -22.306107 11.412863 2.550225 0.000000 -0.000000 -0.000000 0.000000 -0.000000 -0.000000 0.000000 -0.000000 -0.000000 0.000000 -0.000000 -0.000000 0.000000 -0.000000 -0.000000 0.000000 -0.000000 -0.000000 0.000000 -0.000000 -0.000000 0.000000 -0.000000 -0.000000 0.000000 -0.000000 -0.000000 9.456612 -21.999394 8.023833 -60.564681 -18.934048 -23.008662 24.129189 -17.767924 3.341516 -1.957195 30.796015 6.671604 17.551636 -5.699222 -12.932281 10.850472 26.127769 8.644826 -0.000001 0.000001 -0.000002 13.980930 1.201548 -55.004384 0.370782 1.161724 -65.441866 -0.000003 0.000000 -0.000000 7.504744 1.174491 -63.778483 1.807850 1.475630 -64.567950 -0.000000 0.000003 -0.000001 8.574329 2.179062 -75.149013 -0.207629 1.009249 -57.855070 -0.000002 0.000002 0.000000 10.030109 13.637028 -84.750271 0.877077 0.062342 -64.595524 -0.000002 -0.000000 0.000003 0.000000 -0.000000 0.000002 5.959600 9.617571 21.295265 4.503706 9.222831 31.282386 -1.530702 21.002815 6.764795 9.204406 9.176876 -4.602620 15.788506 -2.734486 -17.205854 -2.198277 -31.113578 7.361312 -0.000001 0.000000 0.000005 2.373430 -3.655719 -4.358383 -2.150545 -2.463978 5.827266 -0.000002 0.000000 0.000002 -1.978597 -5.698151 0.816189 0.276844 -5.096194 14.141595 0.000001 0.000001 -0.000001 -3.263256 -8.553250 -1.076772 4.032011 -4.063073 20.416885 0.000001 -0.000005 0.000000 -6.479062 -11.338738 10.414234 10.714165 -2.553886 21.976651 -0.000001 0.000000 0.000002 -0.000001 -0.000001 0.000000 -0.000000 0.000001 -0.000001 -0.000000 0.000001 -0.000001 -0.000000 0.000001 -0.000001 -0.000000 0.000001 -0.000001 -0.000000 0.000001 -0.000001 -0.000000 0.000001 -0.000001 -0.000000 0.000001 -0.000001 -0.000000 0.000001 -0.000001 -0.000000 0.000001 -0.000001 -0.000000 0.000001 -0.000001 0.000001 0.000000 0.000000 0.000001 0.000000 0.000000 0.000001 0.000000 0.000000 
-2.449956 62.749397 34.477512 39.531755 -11.105655 0.462905 -0.000002 -0.000001 -0.000000 -43.215293 12.801835 20.784020 55.793599 -5.939802 -6.000340 -34.050795 -3.577144 -2.735805 -0.000000 -0.000000 0.000000 0.000000 0.000000 0.000000 -75.562021 -3.472035 6.407399 44.089978 8.690308 3.559951 -6.905643 1.107059 -4.734902 0.000000 -0.000000 -0.000000 -0.000003 0.000000 0.000000 55.352731 0.130161 1.972943 -7.048217 -4.757807 3.467305 -6.901551 -2.709294 4.704286 -11.831151 14.450209 -6.776725 -22.091400 11.305035 2.173097 -0.000001 -0.000000 -0.000000 -0.000001 -0.000000 -0.000000 -0.000001 -0.000000 -0.000000 -0.000001 -0.000000 -0.000000 -0.000001 0.000000 -0.000000 -0.000001 -0.000000 -0.000000 -0.000001 0.000000 -0.000000 -0.000001 -0.000000 -0.000000 -0.000001 -0.000000 -0.000000 9.154279 -21.839234 7.793575 -61.429697 -18.897725 -23.856635 25.223889 -17.870531 3.872826 -1.721916 30.018791 6.010355 17.551634 -5.699222 -12.932281 10.850470 26.127763 8.644826 0.000000 0.000001 -0.000001 13.980931 1.201546 -55.004384 0.370783 1.161725 -65.441873 0.000002 0.000001 -0.000000 7.504740 1.174490 -63.778483 1.807848 1.475633 -64.567943 -0.000000 0.000000 -0.000001 8.574327 2.179059 -75.149006 -0.207630 1.009249 -57.855056 -0.000000 0.000001 -0.000001 10.030109 13.637028 -84.750271 0.877074 0.062349 -64.595524 0.000001 0.000001 0.000003 0.000001 0.000000 -0.000002 5.764300 9.722050 21.635954 3.346911 9.473985 31.198682 -1.353930 21.922667 6.569279 9.513247 9.847244 -4.165468 15.788510 -2.734487 -17.205854 -2.198276 -31.113578 7.361310 0.000000 0.000000 -0.000004 2.373626 -3.656083 -4.414098 -2.150841 -2.463704 5.771506 -0.000003 -0.000001 0.000002 -1.978558 -5.697748 0.760407 0.276260 -5.095842 14.085722 0.000000 -0.000001 0.000001 -3.263235 -8.552769 -1.132542 4.031874 -4.063363 20.361065 -0.000004 -0.000003 0.000001 -6.479508 -11.338388 10.358458 10.713997 -2.554751 21.920818 0.000002 0.000004 0.000001 0.000001 0.000002 -0.000001 0.000001 -0.000000 -0.000001 0.000000 0.000000 0.000001 0.000001 -0.000000 -0.000000 0.000001 -0.000000 -0.000000 0.000001 -0.000000 -0.000001 0.000000 0.000000 0.000001 0.000001 -0.000000 -0.000000 0.000001 -0.000000 -0.000000 0.000001 -0.000000 -0.000001 0.000000 0.000000 0.000001 -0.000002 -0.000001 -0.000000 -0.000002 -0.000001 -0.000000 -0.000002 -0.000001 -0.000000 
